{"title":"Naruto Shippuuden - 332 [360p] [ENG-SUBBED] [GWC].mp4","uid":8965426,"size":60051097,"categoryP":"video","categoryS":"tv_shows","magnet":"?xt=urn:btih:09b320bda392958fa08e867738e4146c895853ad&amp;dn=Naruto+Shippuuden+-+332+%5B360p%5D+%5BENG-SUBBED%5D+%5BGWC%5D.mp4&amp;tr=udp%3A%2F%2Ftracker.openbittorrent.com%3A80&amp;tr=udp%3A%2F%2Fopen.demonii.com%3A1337&amp;tr=udp%3A%2F%2Ftracker.coppersurfer.tk%3A6969&amp;tr=udp%3A%2F%2Fexodus.desync.com%3A6969","seeders":0,"leechers":1,"uploader":"canc232","files":1,"time":1380210556,"description":"Naruto Shippuuden - 332 [360p] [ENG-SUBBED] [GWC].mp4\nEpisode Title : The Will of Stone\n\n\nSCREENS :\n &lt;a href=&quot;\nhttp://s10.postimg.org/rh1gantwp/Naruto_Shippuuden_332_360p_GWC_muxed_19_08_5.jpg&quot; rel=&quot;nofollow&quot; target=&quot;_NEW&quot;&gt;\nhttp://s10.postimg.org/rh1gantwp/Naruto_Shippuuden_332_360p_GWC_muxed_19_08_5.jpg&lt;/a&gt;\n &lt;a href=&quot;\nhttp://s10.postimg.org/prsd2le7d/Naruto_Shippuuden_332_360p_GWC_muxed_19_09_0.jpg&quot; rel=&quot;nofollow&quot; target=&quot;_NEW&quot;&gt;\nhttp://s10.postimg.org/prsd2le7d/Naruto_Shippuuden_332_360p_GWC_muxed_19_09_0.jpg&lt;/a&gt;\n &lt;a href=&quot;\nhttp://s10.postimg.org/lhdp70949/Naruto_Shippuuden_332_360p_GWC_muxed_19_09_2.jpg&quot; rel=&quot;nofollow&quot; target=&quot;_NEW&quot;&gt;\nhttp://s10.postimg.org/lhdp70949/Naruto_Shippuuden_332_360p_GWC_muxed_19_09_2.jpg&lt;/a&gt;\n\n\n\nMEDIA INFO :\n\nGeneral \nFormat : MPEG-4 \nCodec ID : isom \nFile size : 57.3 MiB \nDuration : 23mn 9s \nOverall bit rate mode : Variable \nOverall bit rate : 346 Kbps \n\nVideo \nID : 1 \nFormat : AVC \nFormat profile : &lt;a class=&quot;__cf_email__&quot; href=&quot;/cdn-cgi/l/email-protection&quot; data-cfemail=&quot;de96b7b9b69e92edf0ee&quot;&gt;[email&amp;#160;protected]&lt;/a&gt;&lt;script cf-hash='f9e31' type=&quot;text/javascript&quot;&gt;\n/* &lt;![CDATA[ */!function(){try{var t=&quot;currentScript&quot;in document?document.currentScript:function(){for(var t=document.getElementsByTagName(&quot;script&quot;),e=t.length;e--;)if(t[e].getAttribute(&quot;cf-hash&quot;))return t[e]}();if(t&amp;&amp;t.previousSibling){var e,r,n,i,c=t.previousSibling,a=c.getAttribute(&quot;data-cfemail&quot;);if(a){for(e=&quot;&quot;,r=parseInt(a.substr(0,2),16),n=2;a.length-n;n+=2)i=parseInt(a.substr(n,2),16)^r,e+=String.fromCharCode(i);e=document.createTextNode(e),c.parentNode.replaceChild(e,c)}}}catch(u){}}();/* ]]&gt; */&lt;/script&gt; \nFormat settings, CABAC : Yes \nFormat settings, ReFrames : 6 frames \nDuration : 23mn 9s \nBit rate : 286 Kbps \nMaximum bit rate : 1 443 Kbps \nWidth : 640 pixels \nHeight : 360 pixels \nDisplay aspect ratio : 16:9 \nFrame rate mode : Variable \nFrame rate : 23.976 fps \nStream size : 47.4 MiB\nTitle : Naruto Shippuuden - 332 360p [GWC].mp4 \nWriting library : x264 core \n\nAudio \nID : 2 \nFormat : AAC \nFormat profile : HE-AAC / LC \nCodec ID : 40 \nDuration : 23mn 9s \nBit rate mode : Variable \nChannel(s) : 2 channels \nChannel positions : Front: L R \nSampling rate : 48.0 KHz / 24.0 KHz \nStream size : 9.24 MiB (16%) \nTitle : Naruto Shippuuden - 332 360p [GWC].mp4 \nLanguage : English","torrent":{"xt":"urn:btih:09b320bda392958fa08e867738e4146c895853ad","amp;dn":"Naruto+Shippuuden+-+332+%5B360p%5D+%5BENG-SUBBED%5D+%5BGWC%5D.mp4","amp;tr":["udp%3A%2F%2Ftracker.openbittorrent.com%3A80","udp%3A%2F%2Fopen.demonii.com%3A1337","udp%3A%2F%2Ftracker.coppersurfer.tk%3A6969","udp%3A%2F%2Fexodus.desync.com%3A6969"],"infoHash":"09b320bda392958fa08e867738e4146c895853ad","infoHashBuffer":{"type":"Buffer","data":[9,179,32,189,163,146,149,143,160,142,134,119,56,228,20,108,137,88,83,173]},"announce":[],"urlList":[]}}